# Wavefront OBJ file automatically generated by Tiled2Unity

# Vertices (Count = 106)
v -11 -93 0
v -12 -93 0
v -12 -92 0
v -11 -92 0
v -13 -93 0
v -13 -92 0
v -14 -93 0
v -14 -92 0
v -15 -93 0
v -15 -92 0
v -1 -94 0
v -2 -94 0
v -2 -93 0
v -1 -93 0
v -10 -94 0
v -11 -94 0
v -10 -93 0
v -12 -94 0
v -13 -94 0
v -14 -94 0
v -15 -94 0
v 0 -95 0
v -1 -95 0
v 0 -94 0
v -2 -95 0
v -3 -95 0
v -3 -94 0
v -4 -95 0
v -4 -94 0
v -7 -95 0
v -8 -95 0
v -8 -94 0
v -7 -94 0
v -9 -95 0
v -9 -94 0
v -10 -95 0
v -11 -95 0
v -12 -95 0
v -13 -95 0
v -14 -95 0
v -15 -95 0
v 0 -96 0
v -1 -96 0
v -2 -96 0
v -3 -96 0
v -4 -96 0
v -8 -96 0
v -9 -96 0
v -10 -96 0
v -11 -96 0
v -12 -96 0
v -13 -96 0
v -14 -96 0
v -15 -96 0
v 0 -97 0
v -1 -97 0
v -2 -97 0
v -3 -97 0
v -4 -97 0
v -8 -97 0
v -9 -97 0
v -10 -97 0
v -11 -97 0
v -12 -97 0
v -13 -97 0
v -14 -97 0
v -15 -97 0
v 0 -98 0
v -1 -98 0
v -2 -98 0
v -3 -98 0
v -4 -98 0
v -8 -98 0
v -9 -98 0
v -10 -98 0
v -11 -98 0
v -12 -98 0
v -13 -98 0
v -14 -98 0
v -15 -98 0
v 0 -99 0
v -1 -99 0
v -2 -99 0
v -3 -99 0
v -4 -99 0
v -8 -99 0
v -9 -99 0
v -10 -99 0
v -11 -99 0
v -12 -99 0
v -13 -99 0
v -14 -99 0
v -15 -99 0
v 0 -100 0
v -1 -100 0
v -2 -100 0
v -3 -100 0
v -4 -100 0
v -8 -100 0
v -9 -100 0
v -10 -100 0
v -11 -100 0
v -12 -100 0
v -13 -100 0
v -14 -100 0
v -15 -100 0

# Texture Coorindates (Count = 24)
vt 0.630319 0.7714896
vt 0.7066613 0.7714896
vt 0.7066613 0.8460318
vt 0.630319 0.8460318
vt 0.5515444 0.3099511
vt 0.6278867 0.3099511
vt 0.6278867 0.3844933
vt 0.5515444 0.3844933
vt 0.3152205 0.6945665
vt 0.3915628 0.6945665
vt 0.3915628 0.7691087
vt 0.3152205 0.7691087
vt 0.630319 0.8484127
vt 0.7066613 0.8484127
vt 0.7066613 0.9229549
vt 0.630319 0.9229549
vt 0.630319 0.002258823
vt 0.7066613 0.002258823
vt 0.7066613 0.07680101
vt 0.630319 0.07680101
vt 0.630319 0.156105
vt 0.7066613 0.156105
vt 0.7066613 0.2306472
vt 0.630319 0.2306472

# Normal
vn 0 0 -1

# Groups (Count = 1)
g mesh_[00]_[00]
f  1/1/1  2/2/1  3/3/1  4/4/1 
f  2/5/1  5/6/1  6/7/1  3/8/1 
f  5/5/1  7/6/1  8/7/1  6/8/1 
f  7/5/1  9/6/1  10/7/1  8/8/1 
f  11/9/1  12/10/1  13/11/1  14/12/1 
f  15/1/1  16/2/1  1/3/1  17/4/1 
f  16/13/1  18/14/1  2/15/1  1/16/1 
f  18/17/1  19/18/1  5/19/1  2/20/1 
f  19/17/1  20/18/1  7/19/1  5/20/1 
f  20/17/1  21/18/1  9/19/1  7/20/1 
f  22/5/1  23/6/1  11/7/1  24/8/1 
f  23/5/1  25/6/1  12/7/1  11/8/1 
f  25/5/1  26/6/1  27/7/1  12/8/1 
f  26/5/1  28/6/1  29/7/1  27/8/1 
f  30/21/1  31/22/1  32/23/1  33/24/1 
f  31/5/1  34/6/1  35/7/1  32/8/1 
f  34/5/1  36/6/1  15/7/1  35/8/1 
f  36/13/1  37/14/1  16/15/1  15/16/1 
f  37/17/1  38/18/1  18/19/1  16/20/1 
f  38/17/1  39/18/1  19/19/1  18/20/1 
f  39/17/1  40/18/1  20/19/1  19/20/1 
f  40/17/1  41/18/1  21/19/1  20/20/1 
f  42/17/1  43/18/1  23/19/1  22/20/1 
f  43/17/1  44/18/1  25/19/1  23/20/1 
f  44/17/1  45/18/1  26/19/1  25/20/1 
f  45/17/1  46/18/1  28/19/1  26/20/1 
f  47/17/1  48/18/1  34/19/1  31/20/1 
f  48/17/1  49/18/1  36/19/1  34/20/1 
f  49/17/1  50/18/1  37/19/1  36/20/1 
f  50/17/1  51/18/1  38/19/1  37/20/1 
f  51/17/1  52/18/1  39/19/1  38/20/1 
f  52/17/1  53/18/1  40/19/1  39/20/1 
f  53/17/1  54/18/1  41/19/1  40/20/1 
f  55/17/1  56/18/1  43/19/1  42/20/1 
f  56/17/1  57/18/1  44/19/1  43/20/1 
f  57/17/1  58/18/1  45/19/1  44/20/1 
f  58/17/1  59/18/1  46/19/1  45/20/1 
f  60/17/1  61/18/1  48/19/1  47/20/1 
f  61/17/1  62/18/1  49/19/1  48/20/1 
f  62/17/1  63/18/1  50/19/1  49/20/1 
f  63/17/1  64/18/1  51/19/1  50/20/1 
f  64/17/1  65/18/1  52/19/1  51/20/1 
f  65/17/1  66/18/1  53/19/1  52/20/1 
f  66/17/1  67/18/1  54/19/1  53/20/1 
f  68/17/1  69/18/1  56/19/1  55/20/1 
f  69/17/1  70/18/1  57/19/1  56/20/1 
f  70/17/1  71/18/1  58/19/1  57/20/1 
f  71/17/1  72/18/1  59/19/1  58/20/1 
f  73/17/1  74/18/1  61/19/1  60/20/1 
f  74/17/1  75/18/1  62/19/1  61/20/1 
f  75/17/1  76/18/1  63/19/1  62/20/1 
f  76/17/1  77/18/1  64/19/1  63/20/1 
f  77/17/1  78/18/1  65/19/1  64/20/1 
f  78/17/1  79/18/1  66/19/1  65/20/1 
f  79/17/1  80/18/1  67/19/1  66/20/1 
f  81/17/1  82/18/1  69/19/1  68/20/1 
f  82/17/1  83/18/1  70/19/1  69/20/1 
f  83/17/1  84/18/1  71/19/1  70/20/1 
f  84/17/1  85/18/1  72/19/1  71/20/1 
f  86/17/1  87/18/1  74/19/1  73/20/1 
f  87/17/1  88/18/1  75/19/1  74/20/1 
f  88/17/1  89/18/1  76/19/1  75/20/1 
f  89/17/1  90/18/1  77/19/1  76/20/1 
f  90/17/1  91/18/1  78/19/1  77/20/1 
f  91/17/1  92/18/1  79/19/1  78/20/1 
f  92/17/1  93/18/1  80/19/1  79/20/1 
f  94/17/1  95/18/1  82/19/1  81/20/1 
f  95/17/1  96/18/1  83/19/1  82/20/1 
f  96/17/1  97/18/1  84/19/1  83/20/1 
f  97/17/1  98/18/1  85/19/1  84/20/1 
f  99/17/1  100/18/1  87/19/1  86/20/1 
f  100/17/1  101/18/1  88/19/1  87/20/1 
f  101/17/1  102/18/1  89/19/1  88/20/1 
f  102/17/1  103/18/1  90/19/1  89/20/1 
f  103/17/1  104/18/1  91/19/1  90/20/1 
f  104/17/1  105/18/1  92/19/1  91/20/1 
f  105/17/1  106/18/1  93/19/1  92/20/1 
